<?xml version="1.0" encoding="utf-8"?>
<svg xmlns="http://www.w3.org/2000/svg" width="961" height="655" viewBox="0 0 961 655" version="1.1">
  <defs>
    <radialGradient gradientUnits="userSpaceOnUse" cx="465.222" cy="316.843" r="308.645" id="gradient-1">
      <stop offset="0" style="stop-color: rgb(0% 0% 0%)"/>
      <stop offset="1" style="stop-color: rgb(0% 0% 0%)"/>
    </radialGradient>
  </defs>
  <ellipse style="stroke: url(&quot;#gradient-1&quot;); stroke-width: 0px; fill: rgb(21, 65, 136);" cx="465.222" cy="316.843" rx="308.645" ry="300.447"/>
  <path d="M 470.616 79.781 C 451.858 83.574 435.492 92.923 422.291 107.387 L 415.999 114.281 L 409.058 110.873 C 395.324 104.133 377.599 100.588 363.703 101.802 C 320.694 105.561 287.506 136.815 281.526 179.189 C 277.282 209.261 290.892 242.414 315.116 261.014 C 322.736 266.865 334.764 273.077 343.93 275.896 C 348.308 277.243 349.616 278.066 349.227 279.232 C 346.459 287.531 344.485 296.482 342.162 311.279 L 339.415 328.779 L 332.765 331.969 C 324.136 336.11 319.195 340.315 314.587 347.444 C 308.857 356.311 307.343 363.405 307.776 379.358 C 308.104 391.408 308.416 393.37 310.837 398.56 C 312.321 401.74 316.084 407.015 319.201 410.282 L 324.867 416.223 L 323.763 423.501 C 323.155 427.504 320.15 446.079 317.084 464.779 C 313.019 489.576 311.673 500.148 312.111 503.835 C 313.362 514.368 320.084 523.811 330.116 529.129 L 335.116 531.779 L 465.116 531.779 L 595.116 531.779 L 600.83 528.973 C 611.539 523.714 618.621 512.37 618.611 500.491 C 618.609 497.35 617.245 482.179 615.582 466.779 C 608.705 403.124 607.617 392.664 607.624 390.279 C 607.63 388.406 608.653 387.195 611.707 385.451 C 621.19 380.035 629.115 370.076 633.239 358.392 C 636.247 349.871 636.333 339.347 633.55 320.306 C 632.414 312.532 631.645 305.692 631.84 305.106 C 632.036 304.52 634.932 303.011 638.276 301.754 C 650.396 297.198 658.605 290.079 663.735 279.677 C 671.938 263.046 669.156 244.131 656.546 230.799 C 650.693 224.61 645.596 221.364 637.646 218.762 C 632.772 217.167 629.72 217.043 609.646 217.626 C 597.254 217.986 581.068 218.579 573.675 218.944 L 560.234 219.606 L 563.155 214.693 C 572.797 198.473 576.616 184.898 576.616 166.841 C 576.616 151.463 574.293 141.459 567.547 127.779 C 555.056 102.451 532.264 84.991 504.778 79.693 C 495.812 77.965 479.389 78.007 470.616 79.781 M 475.737 94.338 C 452.208 98.546 432.138 113.835 421.529 135.633 C 415.987 147.019 414.27 155.898 414.859 170.118 C 415.725 191.012 421.819 204.513 437.366 219.983 C 445.491 228.067 446.616 229.609 446.616 232.66 C 446.616 238.579 443.825 239.866 429.428 240.581 C 414.699 241.314 407.884 242.944 396.738 248.401 C 390.691 251.361 386.239 254.533 380.738 259.799 C 367.548 272.426 362.721 282.719 358.473 307.279 C 354.781 328.626 354.75 327.899 359.366 328.736 C 365.683 329.882 373.298 333.901 378.668 338.925 C 383.355 343.308 388.406 350.406 389.051 353.514 C 389.196 354.21 389.719 355.679 390.215 356.779 C 390.711 357.879 391.116 366.204 391.116 375.279 L 391.116 391.779 L 387.899 398.353 C 380.079 414.332 362.027 424.737 345.146 422.994 C 339.913 422.454 339.722 422.521 339.177 425.108 C 338.694 427.395 331.901 469.134 328.496 490.729 C 326.345 504.367 328.706 511.208 336.939 515.193 C 341.209 517.26 342.054 517.279 431.432 517.279 C 516.633 517.279 521.619 517.182 521.672 515.529 C 521.703 514.567 523.436 491.729 525.522 464.779 C 527.608 437.829 529.206 415.64 529.073 415.47 C 528.94 415.3 526.195 415.943 522.973 416.9 C 514.432 419.437 501.699 419.193 494.352 416.353 C 466.624 405.634 456.679 371.574 474.404 348.037 C 482.638 337.102 486.627 335.125 527.228 321.853 C 650.275 281.63 642.329 284.63 648.169 276.203 C 653.122 269.055 654.196 258.021 650.789 249.279 C 647.526 240.905 638.023 233.686 628.902 232.65 C 626.27 232.351 608.366 232.805 589.116 233.659 C 569.866 234.513 540.664 235.76 524.223 236.43 L 494.33 237.648 L 491.973 234.908 C 488.978 231.425 488.973 227.831 491.96 224.844 C 494.119 222.685 495.399 222.451 508.21 221.866 C 515.858 221.517 526.04 220.97 530.836 220.651 L 539.556 220.071 L 544.592 213.925 C 554.708 201.578 560.406 187.045 561.328 171.242 C 563.35 136.543 540.438 104.865 506.728 95.752 C 499.662 93.842 482.808 93.073 475.737 94.338 M 354.116 118.747 C 326.74 124.718 304.395 146.739 298.003 174.049 C 295.524 184.64 295.976 199.891 299.087 210.601 C 302.091 220.945 304.296 225.572 310.177 233.873 C 319.056 246.406 331.465 255.302 347.438 260.586 L 356.76 263.669 L 359.339 260.224 C 364.949 252.729 378.359 240.681 385.65 236.585 C 394.102 231.836 406.437 227.443 413.748 226.577 C 416.458 226.256 418.898 225.632 419.171 225.19 C 419.444 224.749 417.895 222.046 415.729 219.185 C 413.564 216.323 410.225 210.771 408.311 206.847 C 397.745 185.189 396.086 161.009 403.677 139.335 C 405.326 134.629 406.94 129.987 407.264 129.019 C 407.738 127.607 406.398 126.592 400.485 123.882 C 396.432 122.025 389.877 119.779 385.919 118.892 C 377.372 116.977 362.542 116.909 354.116 118.747 M 596.616 315.284 C 586.991 318.491 560.902 327.058 538.641 334.322 C 516.38 341.585 497.03 348.228 495.641 349.083 C 475.487 361.501 476.105 389.872 496.753 400.19 C 507.766 405.693 508.966 405.47 558.134 388.79 C 581.624 380.822 602.323 373.387 604.133 372.269 C 612.477 367.112 619.421 355.617 620.321 345.47 C 620.616 342.15 619.95 333.809 618.721 325.449 C 617.563 317.567 616.616 310.705 616.616 310.199 C 616.616 308.738 615.12 309.118 596.616 315.284 M 341.001 344.844 C 335.233 346.963 329.553 352.141 326.161 358.374 C 323.653 362.982 323.21 365.027 322.82 373.803 C 322.271 386.137 323.969 392.995 329.036 398.914 C 338.741 410.253 359.65 410.347 369.118 399.094 C 375.265 391.789 376.116 388.832 376.116 374.779 C 376.116 363.972 375.792 361.127 374.197 357.913 C 371.817 353.119 366.643 348.006 361.795 345.658 C 356.939 343.305 346.323 342.89 341.001 344.844 M 568.616 401.321 C 557.341 405.109 547.441 408.61 546.616 409.101 C 545.398 409.826 544.36 420.003 541.098 463.202 C 538.887 492.466 537.275 516.605 537.514 516.844 C 538.22 517.55 587.059 517.34 590.68 516.616 C 595.234 515.705 602.136 508.651 603.005 504.02 C 603.383 502.003 602.555 489.962 601.118 476.601 C 595.334 422.823 592.616 396.939 592.616 395.646 C 592.616 393.482 590.363 394.015 568.616 401.321" stroke="none" fill-rule="evenodd" style="fill: rgb(255, 255, 255);"/>
</svg>